<?xml version="1.0" encoding="utf-8"?>
<svg viewBox="330.2369 146.7759 180.5128 167.8467" xmlns="http://www.w3.org/2000/svg">
  <defs>
    <style type="text/css" id="style6">
   
    .fil0 {fill:#313134}
   
  </style>
  </defs>
  <g id="Ebene 1" style="fill:#009898;fill-opacity:1" transform="matrix(1, 0, 0, 1, 23.06682586669922, 125.62265777587892)">
    <g id="g9" style="fill:#009898;fill-opacity:1">
      <path class="fil0" d="m 429,147 c 2,6 5,17 5,17 0,0 -75,23 -83,25 -30,-18 -48,-54 -43,-92 4,-22 15,-41 32,-56 22,-18 52,-24 81,-17 24,6 46,23 57,46 15,29 13,72 -9,98 -7,8 -15,15 -25,21 -3,-5 -7,-11 -9,-15 13,-9 26,-22 31,-38 9,-26 2,-57 -18,-76 -10,-10 -18,-16 -34,-20 -15,-2 -32,-1 -45,5 -25,11 -43,37 -44,65 0,23 11,45 29,59 z" id="path29" style="fill:#009898;fill-opacity:1"/>
      <path class="fil0" d="M 408,111 H 389 V 84 c 0,-2 -3,-5 -5,-7 -4,-2 -9,-2 -12,0 -3,1 -4,3 -5,6 -1,18 -1,46 -1,56 H 348 V 81 c 1,-11 9,-19 19,-22 10,-3 23,-2 30,6 6,-4 13,-8 21,-8 h 1 c 10,0 20,6 25,15 3,6 4,12 4,18 v 49 H 430 V 85 c -1,-5 -4,-7 -8,-9 -4,-1 -12,-1 -14,7 z" id="path31" style="fill:#009898;fill-opacity:1"/>
    </g>
  </g>
</svg>