<?xml version="1.0" encoding="UTF-8" standalone="no"?>
<!-- Creator: CorelDRAW -->

<svg
   xmlns:dc="http://purl.org/dc/elements/1.1/"
   xmlns:cc="http://creativecommons.org/ns#"
   xmlns:rdf="http://www.w3.org/1999/02/22-rdf-syntax-ns#"
   xmlns:svg="http://www.w3.org/2000/svg"
   xmlns="http://www.w3.org/2000/svg"
   xmlns:sodipodi="http://sodipodi.sourceforge.net/DTD/sodipodi-0.dtd"
   xmlns:inkscape="http://www.inkscape.org/namespaces/inkscape"
   xml:space="preserve"
   width="870"
   height="500"
   style="fill-rule:evenodd"
   viewBox="0 0 870 500"
   id="svg2"
   version="1.1"
   inkscape:version="0.92.3 (2405546, 2018-03-11)"
   sodipodi:docname="MarquardtGroup-Logo-CIColor-on-Transparent.svg"><metadata
   id="metadata35"><rdf:RDF><cc:Work
       rdf:about=""><dc:format>image/svg+xml</dc:format><dc:type
         rdf:resource="http://purl.org/dc/dcmitype/StillImage" /><dc:title></dc:title></cc:Work></rdf:RDF></metadata><sodipodi:namedview
   pagecolor="#ffffff"
   bordercolor="#666666"
   borderopacity="1"
   objecttolerance="10"
   gridtolerance="10"
   guidetolerance="10"
   inkscape:pageopacity="0"
   inkscape:pageshadow="2"
   inkscape:window-width="1920"
   inkscape:window-height="1018"
   id="namedview33"
   showgrid="false"
   inkscape:zoom="0.64"
   inkscape:cx="462.26756"
   inkscape:cy="284.48596"
   inkscape:window-x="-8"
   inkscape:window-y="-8"
   inkscape:window-maximized="1"
   inkscape:current-layer="svg2" />
 <defs
   id="defs4">
  <style
   type="text/css"
   id="style6">
   
    .fil0 {fill:#313134}
   
  </style>
 </defs>
 <g
   id="Ebene 1"
   style="fill:#009898;fill-opacity:1"
   transform="translate(35,71.923374)">
  <g
   id="g9"
   style="fill:#009898;fill-opacity:1">
   <path
   class="fil0"
   d="m 777,245 h -21 v 82 h -18 v -82 h -21 v -13 h 60 z"
   id="path11"
   style="fill:#009898;fill-opacity:1"
   inkscape:connector-curvature="0" />
   <path
   class="fil0"
   d="m 680,245 h -20 v 68 c 8,0 15,1 23,0 7,-1 14,-4 16,-11 6,-12 7,-30 2,-43 0,-1 -1,-1 -1,-2 -4,-8 -12,-10 -20,-12 z m 3,-13 c 6,0 12,2 18,5 19,10 23,34 20,54 -3,16 -12,31 -28,35 -6,1 -13,1 -19,1 h -30 v -95 h 39"
   id="path13"
   style="fill:#009898;fill-opacity:1"
   inkscape:connector-curvature="0" />
   <path
   class="fil0"
   d="m 584,245 v 30 c 11,0 23,2 31,-5 4,-4 4,-11 3,-16 -2,-5 -6,-8 -11,-9 z m 27,-13 c 9,1 20,6 23,17 3,8 1,19 -4,25 -4,3 -8,6 -12,7 1,2 3,2 4,3 14,7 8,26 12,39 l 2,4 h -18 l -1,-4 -2,-20 c 0,-5 -2,-10 -7,-12 l -5,-2 -19,1 v 37 h -18 l 1,-95 h 44"
   id="path15"
   style="fill:#009898;fill-opacity:1"
   inkscape:connector-curvature="0" />
   <path
   class="fil0"
   d="m 536,250 -4,-3 c -6,-3 -13,-4 -20,-2 -5,1 -9,4 -11,10 -2,6 -1,13 -2,20 h 40 c 0,-8 2,-18 -3,-25 z m 20,77 h -17 v -38 h -39 v 38 h -17 v -69 c 0,-11 8,-20 17,-25 12,-6 29,-4 41,1 5,3 9,7 12,11 2,6 3,11 3,17 v 65"
   id="path17"
   style="fill:#009898;fill-opacity:1"
   inkscape:connector-curvature="0" />
   <path
   class="fil0"
   d="m 417,296 c 1,7 2,14 8,17 7,4 18,3 25,-1 3,-3 5,-7 6,-12 v -68 h 17 v 67 c 0,10 -5,19 -13,24 -6,4 -12,6 -19,7 -14,0 -29,-2 -37,-15 -4,-6 -3,-14 -4,-22 v -61 h 17 z"
   id="path19"
   style="fill:#009898;fill-opacity:1"
   inkscape:connector-curvature="0" />
   <path
   class="fil0"
   d="m 325,253 c -4,5 -7,9 -9,16 -5,14 -1,32 12,41 7,4 18,7 26,3 -3,-3 -5,-6 -8,-9 l 11,-9 c 3,3 5,7 9,10 9,-11 10,-28 5,-41 -5,-10 -15,-19 -27,-19 -8,0 -15,4 -19,8 z m 40,-18 c 17,9 27,27 26,47 -1,14 -5,26 -15,35 l 8,9 c -4,3 -11,9 -11,9 0,0 -5,-7 -8,-10 -13,7 -32,7 -44,-1 -17,-10 -27,-31 -23,-52 3,-18 14,-34 31,-40 10,-4 24,-3 34,2 l 2,1"
   id="path21"
   style="fill:#009898;fill-opacity:1"
   inkscape:connector-curvature="0" />
   <path
   class="fil0"
   d="m 267,245 h -25 v 31 h 1 c 5,-1 23,2 30,-6 4,-5 5,-12 2,-17 -1,-3 -4,-7 -8,-8 z m 4,-13 c 9,1 18,8 21,17 3,9 2,20 -5,27 -3,2 -7,4 -11,6 2,1 5,2 7,4 11,10 5,28 10,41 h -17 c -3,-10 -2,-20 -4,-30 -2,-5 -7,-7 -11,-7 h -19 v 37 h -18 v -95 h 47"
   id="path23"
   style="fill:#009898;fill-opacity:1"
   inkscape:connector-curvature="0" />
   <path
   class="fil0"
   d="m 195,252 c -6,-8 -19,-10 -28,-6 -11,4 -9,18 -9,29 h 39 c 0,-8 1,-16 -2,-23 z m 16,-5 c 2,5 3,11 3,17 v 63 h -17 v -37 h -39 v 37 h -17 v -66 c 0,-13 8,-24 19,-28 12,-5 26,-4 38,1 6,3 10,7 13,13"
   id="path25"
   style="fill:#009898;fill-opacity:1"
   inkscape:connector-curvature="0" />
   <path
   class="fil0"
   d="m 77,239 c -7,-9 -20,-10 -30,-8 -7,1 -11,3 -16,8 -8,9 -8,21 -8,22 0,11 0,66 0,66 h 17 c 0,0 0,-57 0,-59 0,-6 -1,-10 1,-14 4,-12 23,-10 26,1 3,8 2,34 2,34 h 16 c 0,0 -1,-26 2,-34 3,-11 21,-13 26,-1 1,4 1,8 1,14 0,2 0,59 0,59 h 17 c 0,0 0,-55 0,-66 0,-1 0,-13 -8,-22 -5,-5 -9,-7 -16,-8 -10,-2 -23,-1 -30,8 z"
   id="path27"
   style="fill:#009898;fill-opacity:1"
   inkscape:connector-curvature="0" />
   <path
   class="fil0"
   d="m 429,147 c 2,6 5,17 5,17 0,0 -75,23 -83,25 -30,-18 -48,-54 -43,-92 4,-22 15,-41 32,-56 22,-18 52,-24 81,-17 24,6 46,23 57,46 15,29 13,72 -9,98 -7,8 -15,15 -25,21 -3,-5 -7,-11 -9,-15 13,-9 26,-22 31,-38 9,-26 2,-57 -18,-76 -10,-10 -18,-16 -34,-20 -15,-2 -32,-1 -45,5 -25,11 -43,37 -44,65 0,23 11,45 29,59 z"
   id="path29"
   style="fill:#009898;fill-opacity:1"
   inkscape:connector-curvature="0" />
   <path
   class="fil0"
   d="M 408,111 H 389 V 84 c 0,-2 -3,-5 -5,-7 -4,-2 -9,-2 -12,0 -3,1 -4,3 -5,6 -1,18 -1,46 -1,56 H 348 V 81 c 1,-11 9,-19 19,-22 10,-3 23,-2 30,6 6,-4 13,-8 21,-8 h 1 c 10,0 20,6 25,15 3,6 4,12 4,18 v 49 H 430 V 85 c -1,-5 -4,-7 -8,-9 -4,-1 -12,-1 -14,7 z"
   id="path31"
   style="fill:#009898;fill-opacity:1"
   inkscape:connector-curvature="0" />
  </g>
 </g>
</svg>